<?xml version="1.0" standalone="no"?>
<!DOCTYPE svg PUBLIC "-//W3C//DTD SVG 20010904//EN"
 "http://www.w3.org/TR/2001/REC-SVG-20010904/DTD/svg10.dtd">
<svg version="1.0" xmlns="http://www.w3.org/2000/svg"
 width="512.000000pt" height="512.000000pt" viewBox="0 0 512.000000 512.000000"
 preserveAspectRatio="xMidYMid meet">

<g transform="translate(0.000000,512.000000) scale(0.100000,-0.100000)"
fill="#000000" stroke="none">
<path d="M2840 4060 l0 -510 35 0 35 0 0 510 0 510 -35 0 -35 0 0 -510z"/>
<path d="M1160 4064 c0 -448 2 -496 16 -490 9 3 20 6 25 6 5 0 9 199 9 490 l0
490 -25 0 -25 0 0 -496z"/>
<path d="M1300 4075 l0 -485 25 0 25 0 0 485 0 485 -25 0 -25 0 0 -485z"/>
<path d="M1430 4076 l0 -483 31 -7 c17 -3 53 -6 80 -6 l49 0 0 490 0 490 -80
0 -80 0 0 -484z"/>
<path d="M1700 4045 l0 -516 48 -20 c26 -12 57 -25 70 -30 l22 -9 0 545 0 545
-70 0 -70 0 0 -515z"/>
<path d="M1958 4003 c-3 -648 -3 -612 6 -646 6 -27 31 -57 47 -57 5 0 9 249 9
630 l0 630 -30 0 -30 0 -2 -557z"/>
<path d="M2180 4055 l0 -505 85 0 85 0 0 505 0 505 -85 0 -85 0 0 -505z"/>
<path d="M2450 4055 l0 -505 45 0 45 0 0 505 0 505 -45 0 -45 0 0 -505z"/>
<path d="M2600 4055 l0 -505 25 0 25 0 0 505 0 505 -25 0 -25 0 0 -505z"/>
<path d="M2720 4055 l0 -505 30 0 30 0 0 505 0 505 -30 0 -30 0 0 -505z"/>
<path d="M3000 4055 l0 -505 70 0 70 0 0 505 0 505 -70 0 -70 0 0 -505z"/>
<path d="M3430 4060 l0 -500 65 0 65 0 0 500 0 500 -65 0 -65 0 0 -500z"/>
<path d="M3660 4055 l0 -505 75 0 75 0 0 505 0 505 -75 0 -75 0 0 -505z"/>
<path d="M3890 4055 l0 -505 25 0 25 0 0 505 0 505 -25 0 -25 0 0 -505z"/>
<path d="M4170 4016 l0 -536 38 -18 c20 -11 49 -22 65 -26 l27 -6 0 504 0 504
-65 57 -65 57 0 -536z"/>
<path d="M893 4501 l-43 -37 0 -507 c0 -361 3 -507 11 -507 23 0 69 35 79 61
9 20 9 163 3 527 l-8 500 -42 -37z"/>
<path d="M697 4312 l-57 -58 2 -509 3 -510 35 49 c19 26 45 59 58 73 l22 24
-2 495 -3 495 -58 -59z"/>
<path d="M4568 3684 c-3 -250 -1 -476 3 -502 9 -47 35 -92 57 -100 9 -3 12
112 12 485 l0 488 -34 42 -33 42 -5 -455z"/>
<path d="M362 3871 l-22 -39 0 -1273 0 -1274 25 -40 24 -40 1 1353 c0 743 -1
1352 -3 1352 -2 0 -13 -17 -25 -39z"/>
<path d="M4731 2560 l0 -1355 24 40 25 40 0 1275 0 1275 -25 40 -24 40 0
-1355z"/>
<path d="M257 3675 l-27 -55 0 -1063 1 -1062 29 -55 29 -55 1 1173 c0 644 -1
1172 -3 1172 -2 0 -15 -25 -30 -55z"/>
<path d="M4831 2560 l0 -1175 29 55 29 55 0 1065 0 1065 -29 55 -29 55 0
-1175z"/>
<path d="M1270 3460 c-142 -20 -320 -96 -418 -180 -139 -119 -244 -308 -294
-531 -21 -95 -23 -127 -23 -369 l1 -265 32 -119 c88 -331 282 -553 572 -652
45 -16 84 -19 215 -19 153 0 164 2 250 32 153 53 243 118 337 243 56 74 142
289 124 307 -22 23 -342 141 -352 130 -1 -1 -16 -45 -33 -98 -40 -123 -79
-182 -154 -230 -68 -44 -106 -54 -186 -46 -175 15 -307 186 -346 444 -19 128
-20 437 0 564 47 315 212 484 429 439 122 -25 208 -135 256 -327 8 -30 16 -43
28 -43 9 1 91 32 182 69 l165 69 0 49 c-1 37 -12 71 -50 148 -42 84 -63 114
-135 185 -95 96 -178 146 -298 179 -88 24 -214 33 -302 21z"/>
<path d="M2330 2390 l0 -1020 215 0 215 0 0 1020 0 1020 -215 0 -215 0 0
-1020z"/>
<path d="M3150 2391 l0 -1018 138 -7 c206 -10 497 -8 582 4 229 32 367 97 496
231 129 135 204 313 234 553 17 133 8 517 -15 616 -22 100 -78 237 -127 313
-48 73 -156 182 -230 231 -110 73 -293 96 -790 96 l-288 0 0 -1019z m780 663
c92 -42 175 -157 215 -299 23 -80 32 -465 15 -603 -29 -230 -104 -370 -229
-426 -77 -34 -143 -46 -262 -46 l-99 0 0 701 0 701 158 -4 c130 -3 165 -8 202
-24z"/>
<path d="M640 1300 l0 -230 60 0 60 0 0 173 -1 172 -49 50 c-28 27 -50 53 -50
57 0 5 -4 8 -10 8 -6 0 -10 -83 -10 -230z"/>
<path d="M850 1200 l0 -130 45 0 45 0 0 110 c0 119 2 115 -64 140 l-26 10 0
-130z"/>
<path d="M2460 1030 l0 -180 40 0 40 0 0 180 0 180 -40 0 -40 0 0 -180z"/>
<path d="M2600 1030 l0 -180 25 0 25 0 0 180 0 180 -25 0 -25 0 0 -180z"/>
<path d="M2720 1110 l0 -100 25 0 25 0 0 100 0 100 -25 0 -25 0 0 -100z"/>
<path d="M1395 1163 c-28 -7 -61 -39 -75 -74 -7 -17 -11 -62 -9 -113 4 -78 6
-87 33 -115 26 -27 36 -31 86 -31 98 0 130 42 130 172 0 72 -3 88 -24 119 -30
44 -77 57 -141 42z m77 -70 c24 -22 26 -157 2 -191 -19 -27 -55 -28 -79 -2
-27 30 -27 160 -1 189 23 25 53 27 78 4z"/>
<path d="M1720 1158 c-13 -7 -35 -29 -48 -48 -21 -32 -23 -44 -20 -127 3 -86
5 -94 32 -122 27 -28 36 -31 88 -31 50 0 62 4 90 29 33 29 33 31 36 129 l4
100 -34 37 c-27 30 -43 38 -78 41 -26 3 -55 -1 -70 -8z m92 -65 c25 -23 26
-167 1 -195 -20 -22 -51 -23 -75 -1 -25 23 -26 167 -1 195 20 22 51 23 75 1z"/>
<path d="M1012 1130 c-31 -22 -42 -37 -42 -56 0 -21 4 -24 20 -20 11 3 29 9
40 12 19 5 20 1 20 -115 l0 -121 35 0 35 0 0 165 0 165 -33 0 c-22 0 -49 -11
-75 -30z"/>
<path d="M2017 1149 c-51 -30 -76 -183 -41 -252 30 -59 42 -67 104 -67 98 0
140 51 140 170 0 117 -35 160 -130 160 -30 0 -63 -5 -73 -11z m110 -61 c32
-30 34 -142 2 -182 -23 -29 -53 -28 -76 2 -16 19 -17 155 -3 183 14 25 48 24
77 -3z"/>
<path d="M2985 1137 c-32 -18 -41 -29 -43 -56 -3 -29 -1 -32 17 -27 67 19 61
30 61 -103 l0 -121 35 0 35 0 0 165 0 165 -32 0 c-18 0 -51 -10 -73 -23z"/>
<path d="M3223 1145 c-43 -30 -66 -155 -43 -234 18 -62 45 -81 117 -81 56 0
67 3 88 26 31 33 45 82 45 157 0 102 -41 147 -132 147 -31 0 -62 -6 -75 -15z
m105 -51 c19 -13 22 -24 22 -92 0 -110 -32 -150 -80 -102 -17 17 -20 33 -20
103 0 105 22 131 78 91z"/>
<path d="M3597 1149 c-33 -19 -57 -84 -57 -153 0 -76 10 -108 46 -141 22 -21
37 -25 84 -25 48 0 60 4 82 28 36 37 48 73 48 144 0 66 -20 120 -54 143 -24
17 -122 20 -149 4z m113 -58 c5 -11 10 -53 10 -93 0 -106 -33 -145 -80 -98
-17 17 -20 33 -20 103 0 51 5 88 12 95 19 19 66 15 78 -7z"/>
<path d="M3958 1134 c-41 -21 -48 -29 -48 -54 0 -24 4 -30 21 -30 11 0 29 5
40 10 18 10 19 6 19 -110 l0 -120 40 0 40 0 0 165 0 165 -32 0 c-18 -1 -54
-12 -80 -26z"/>
</g>
</svg>
